<svg class="brxe-svg" id="brxe-yepqnk" xmlns="http://www.w3.org/2000/svg" viewBox="0 0 512 512" width="100%" height="100%">
    <path fill="#FFFFFF" d="M488.5 386.5h-65v-89H434a7.5 7.5 0 0 0 7.5-7.5V136a7.5 7.5 0 0 0-7.5-7.5h-45.5V86a7.5 7.5 0 0 0-7.5-7.5h-80a7.498 7.498 0 0 0-5.856 2.815L257.396 128.5h-73.71V106a7.5 7.5 0 0 0-7.5-7.5h-60a7.5 7.5 0 0 0-7.5 7.5v22.5H78a7.5 7.5 0 0 0-7.5 7.5v154a7.5 7.5 0 0 0 7.5 7.5h8.5v89h-63C10.542 386.5 0 397.042 0 410s10.542 23.5 23.5 23.5H416c4.143 0 7.5-3.358 7.5-7.5s-3.357-7.5-7.5-7.5H23.5c-4.687 0-8.5-3.813-8.5-8.5s3.813-8.5 8.5-8.5h465c4.687 0 8.5 3.813 8.5 8.5s-3.813 8.5-8.5 8.5h-40.73c-4.143 0-7.5 3.358-7.5 7.5s3.357 7.5 7.5 7.5h40.73c12.958 0 23.5-10.542 23.5-23.5s-10.542-23.5-23.5-23.5zm-80 0h-20v-89h20zm-103.896-293H373.5v35h-96.896zm-180.919 20h45v15h-45zm-38.185 30h341v139h-341zm124 191h-37v-10.062h37zm-37 15h37v10.062h-37zm37-40.062h-37V297.5h37zM131 363.474a7.5 7.5 0 0 0-7.5 7.5V386.5h-22v-89h22v41.269a7.5 7.5 0 0 0 15 0V297.5h19v89h-19v-15.526a7.5 7.5 0 0 0-7.5-7.5zm41.5 23.026v-11.938h37V386.5zm86 0v-51h85v51zm100 0V328a7.5 7.5 0 0 0-7.5-7.5H251a7.5 7.5 0 0 0-7.5 7.5v58.5h-19v-89h149v89z"/>
    <path fill="#FFFFFF" d="M108 267.5h296a7.5 7.5 0 0 0 7.5-7.5v-94a7.5 7.5 0 0 0-7.5-7.5h-19.615c-4.143 0-7.5 3.358-7.5 7.5s3.357 7.5 7.5 7.5H396.5v79h-73v-79h28.475c4.143 0 7.5-3.358 7.5-7.5s-3.357-7.5-7.5-7.5H108a7.5 7.5 0 0 0-7.5 7.5v94a7.5 7.5 0 0 0 7.5 7.5zm200.5-15h-105v-79h105zm-193-79h73v79h-73z"/>
</svg>